<?xml version="1.0" encoding="utf-8"?>
<!-- Generator: Adobe Illustrator 22.0.1, SVG Export Plug-In . SVG Version: 6.00 Build 0)  -->
<svg version="1.1" xmlns="http://www.w3.org/2000/svg" xmlns:xlink="http://www.w3.org/1999/xlink" x="0px" y="0px"
	 viewBox="0 0 100 100" style="enable-background:new 0 0 100 100;" xml:space="preserve">
<style type="text/css">
	.st0{fill:#DA463A;}
	.st1{fill:#6CB1FF;}
	.st2{fill:#FFFFFF;}
</style>
<g id="sun">
	<path class="st0" d="M49.6,46.5v-2.1c0,0,8.5,0.5,8.5-7.9s-8.5-7.4-8.5-7.4v-2.6c0,0,11.1,0,11.1,10S49.6,46.5,49.6,46.5z"/>
	
		<rect x="62.8" y="35.4" transform="matrix(-1 -1.224647e-16 1.224647e-16 -1 131.9437 72.9718)" class="st0" width="6.3" height="2.1"/>
	<rect x="60.7" y="43.4" transform="matrix(-0.866 -0.5 0.5 -0.866 96.9586 114.7969)" class="st0" width="6.3" height="2.1"/>
	<rect x="60.7" y="27.5" transform="matrix(-0.866 0.5 -0.5 -0.866 133.4445 21.3704)" class="st0" width="6.3" height="2.1"/>
	<rect x="54.9" y="22.2" transform="matrix(-0.5 0.866 -0.866 -0.5 107.2365 -15.3496)" class="st0" width="6.3" height="2.1"/>
	
		<rect x="47.5" y="20.1" transform="matrix(-1.836970e-16 1 -1 -1.836970e-16 71.8239 -29.4859)" class="st0" width="6.3" height="2.1"/>
	
		<rect x="47.5" y="51.3" transform="matrix(-1.836970e-16 1 -1 -1.836970e-16 102.9859 1.6761)" class="st0" width="6.3" height="2.1"/>
	
		<rect x="55.4" y="49.2" transform="matrix(-0.5467 -0.8373 0.8373 -0.5467 48.5558 126.7217)" class="st0" width="6.3" height="2.1"/>
</g>
<g id="snowflake">
	<polygon class="st1" points="48,55.5 45.9,55.5 45.9,52.3 43.3,55 41.7,53.4 45.9,49.2 45.9,38.6 36.9,43.9 35.3,49.7 33.2,49.2 
		34.3,45.5 31.1,47 30.1,44.9 33.2,43.4 29,42.3 29.5,40.2 35.9,41.8 44.8,36.5 35.9,31.7 29.5,32.8 29.5,30.7 33.2,30.1 30.1,28 
		31.1,26.5 33.8,28 32.7,24.3 34.8,23.8 36.9,29.6 45.9,34.9 45.9,24.3 41.1,20.1 42.7,18.5 45.9,21.2 45.9,18 48,18 48,21.2 	"/>
	<g>
		<path class="st2" d="M6.6,73V62.2h2.2v4.1h4.2v-4.1h2.2V73h-2.2v-4.8H8.9V73H6.6z"/>
		<path class="st2" d="M23.9,72c-0.7,0.8-1.7,1.2-3.1,1.2s-2.4-0.4-3.1-1.2s-1-1.8-1-3c0-1.2,0.3-2.1,1-3s1.7-1.3,3.1-1.3
			s2.4,0.4,3.1,1.3s1,1.8,1,3C25,70.2,24.6,71.2,23.9,72z M22.3,70.8c0.3-0.4,0.5-1.1,0.5-1.9s-0.2-1.4-0.5-1.8s-0.8-0.6-1.4-0.6
			s-1.1,0.2-1.4,0.6c-0.3,0.4-0.5,1-0.5,1.8s0.2,1.4,0.5,1.9c0.3,0.4,0.8,0.7,1.4,0.7S22,71.3,22.3,70.8z"/>
		<path class="st2" d="M28.5,65v4.8c0,0.5,0.1,0.8,0.2,1c0.2,0.4,0.6,0.6,1.1,0.6c0.7,0,1.2-0.3,1.5-0.9c0.1-0.3,0.2-0.7,0.2-1.2V65
			h2.1v8h-2v-1.1c0,0-0.1,0.1-0.1,0.2c-0.1,0.1-0.2,0.2-0.3,0.3c-0.3,0.3-0.6,0.5-0.9,0.6c-0.3,0.1-0.7,0.2-1.1,0.2
			c-1.2,0-2-0.4-2.4-1.3c-0.2-0.5-0.3-1.2-0.3-2.1V65H28.5z"/>
		<path class="st2" d="M37.2,70.4c0,0.4,0.1,0.6,0.3,0.8c0.3,0.3,0.7,0.4,1.4,0.4c0.4,0,0.7-0.1,1-0.2s0.4-0.3,0.4-0.5
			c0-0.2-0.1-0.4-0.3-0.5s-0.9-0.3-2.2-0.6c-0.9-0.2-1.5-0.5-1.9-0.8c-0.4-0.3-0.6-0.8-0.6-1.4c0-0.7,0.3-1.4,0.9-1.9
			c0.6-0.5,1.4-0.8,2.4-0.8c1,0,1.8,0.2,2.4,0.6c0.6,0.4,1,1.1,1.1,2.1h-2.1c0-0.3-0.1-0.5-0.2-0.6c-0.2-0.3-0.6-0.4-1.2-0.4
			c-0.5,0-0.8,0.1-1,0.2s-0.3,0.3-0.3,0.5c0,0.2,0.1,0.4,0.3,0.5c0.2,0.1,0.9,0.3,2.2,0.6c0.8,0.2,1.5,0.5,1.9,0.9
			c0.4,0.4,0.6,0.9,0.6,1.5c0,0.8-0.3,1.4-0.9,1.9c-0.6,0.5-1.5,0.8-2.7,0.8c-1.3,0-2.2-0.3-2.8-0.8c-0.6-0.5-0.9-1.2-0.9-2H37.2z"
			/>
		<path class="st2" d="M49.2,65.2c0.6,0.2,1,0.6,1.4,1.2c0.3,0.5,0.5,1,0.6,1.7c0.1,0.4,0.1,0.9,0.1,1.6h-5.8c0,0.8,0.3,1.4,0.8,1.7
			c0.3,0.2,0.7,0.3,1.2,0.3c0.5,0,0.9-0.1,1.2-0.4c0.2-0.1,0.3-0.3,0.4-0.5h2.1c-0.1,0.5-0.3,1-0.8,1.4c-0.7,0.8-1.7,1.2-3,1.2
			c-1.1,0-2-0.3-2.8-1c-0.8-0.7-1.2-1.7-1.2-3.2c0-1.4,0.4-2.4,1.1-3.2c0.7-0.7,1.7-1.1,2.9-1.1C48,64.8,48.6,64.9,49.2,65.2z
			 M46,67c-0.3,0.3-0.5,0.7-0.6,1.2h3.6c0-0.6-0.2-1-0.6-1.3c-0.3-0.3-0.7-0.4-1.2-0.4C46.7,66.5,46.3,66.7,46,67z"/>
		<path class="st2" d="M53.5,63.3c0.9-0.9,2-1.3,3.3-1.3c1.8,0,3.1,0.6,3.9,1.8c0.5,0.7,0.7,1.3,0.7,2h-2.3
			c-0.1-0.5-0.3-0.9-0.6-1.2c-0.4-0.5-1-0.7-1.8-0.7c-0.8,0-1.4,0.3-1.9,1c-0.5,0.7-0.7,1.6-0.7,2.8s0.2,2.1,0.7,2.7
			c0.5,0.6,1.1,0.9,1.9,0.9c0.8,0,1.4-0.3,1.8-0.8c0.2-0.3,0.4-0.7,0.6-1.3h2.2c-0.2,1.2-0.7,2.1-1.5,2.9s-1.8,1.1-3.1,1.1
			c-1.5,0-2.7-0.5-3.6-1.5c-0.9-1-1.3-2.4-1.3-4.1C52,65.8,52.5,64.3,53.5,63.3z"/>
		<path class="st2" d="M69.8,72c-0.7,0.8-1.7,1.2-3.1,1.2s-2.4-0.4-3.1-1.2s-1-1.8-1-3c0-1.2,0.3-2.1,1-3s1.7-1.3,3.1-1.3
			s2.4,0.4,3.1,1.3s1,1.8,1,3C70.8,70.2,70.5,71.2,69.8,72z M68.1,70.8c0.3-0.4,0.5-1.1,0.5-1.9s-0.2-1.4-0.5-1.8s-0.8-0.6-1.4-0.6
			s-1.1,0.2-1.4,0.6c-0.3,0.4-0.5,1-0.5,1.8s0.2,1.4,0.5,1.9c0.3,0.4,0.8,0.7,1.4,0.7S67.8,71.3,68.1,70.8z"/>
		<path class="st2" d="M82.3,65c0.3,0.1,0.7,0.4,0.9,0.7c0.2,0.3,0.4,0.6,0.5,1c0,0.3,0.1,0.7,0.1,1.2l0,5h-2.1v-5.1
			c0-0.3,0-0.6-0.1-0.7c-0.2-0.4-0.5-0.6-1-0.6c-0.6,0-1,0.2-1.2,0.7c-0.1,0.3-0.2,0.6-0.2,0.9V73h-2.1v-4.8c0-0.5,0-0.8-0.1-1
			c-0.2-0.4-0.5-0.6-1-0.6c-0.6,0-1,0.2-1.2,0.6c-0.1,0.2-0.2,0.5-0.2,1V73h-2.1v-8h2v1.2c0.3-0.4,0.5-0.7,0.7-0.9
			c0.4-0.3,0.9-0.5,1.6-0.5c0.6,0,1.1,0.1,1.5,0.4c0.3,0.2,0.5,0.6,0.7,1c0.3-0.5,0.6-0.8,1-1c0.4-0.2,0.9-0.3,1.4-0.3
			C81.6,64.8,81.9,64.9,82.3,65z"/>
		<path class="st2" d="M86.1,63.5v-1.3h4.8v1.3h-1.6v4.1h-1.6v-4.1H86.1z M93.7,62.2l1,3.1l1-3.1h2.3v5.4h-1.4v-3.9l-1.2,3.9H94
			l-1.2-3.9v3.9h-1.4v-5.4H93.7z"/>
	</g>
</g>
<g id="Layer_3">
	<g>
		<path class="st2" d="M22.6,77.1h4.2v0.5H25v5.3h-0.5v-5.3h-1.8V77.1z"/>
		<path class="st2" d="M27.5,82.8v-5.8H28v2.2c0.2-0.2,0.4-0.4,0.6-0.5c0.2-0.1,0.5-0.2,0.7-0.2c0.3,0,0.5,0,0.7,0.1
			s0.4,0.2,0.6,0.5c0.1,0.1,0.2,0.3,0.2,0.5c0,0.2,0,0.3,0,0.5v2.7h-0.5v-2.7c0-0.4-0.1-0.7-0.2-0.8c-0.2-0.2-0.4-0.3-0.8-0.3
			c-0.1,0-0.3,0-0.4,0.1c-0.1,0-0.2,0.1-0.3,0.2s-0.2,0.2-0.3,0.3s-0.1,0.2-0.2,0.3c0,0.1-0.1,0.3-0.1,0.4c0,0.1,0,0.3,0,0.4v2.2
			H27.5z"/>
		<path class="st2" d="M32.3,80.9c0,0.2,0,0.4,0.1,0.6c0.1,0.2,0.1,0.4,0.3,0.5c0.1,0.1,0.3,0.3,0.4,0.4c0.2,0.1,0.4,0.1,0.6,0.1
			c0.3,0,0.6-0.1,0.8-0.2c0.2-0.2,0.4-0.4,0.4-0.7h0.5c-0.1,0.2-0.1,0.4-0.2,0.5c-0.1,0.2-0.2,0.3-0.4,0.4c-0.1,0.1-0.3,0.2-0.5,0.3
			c-0.2,0.1-0.4,0.1-0.7,0.1c-0.3,0-0.6-0.1-0.9-0.2c-0.2-0.1-0.4-0.3-0.6-0.5s-0.3-0.4-0.3-0.7c-0.1-0.3-0.1-0.5-0.1-0.9
			c0-0.3,0-0.6,0.1-0.9c0.1-0.3,0.2-0.5,0.4-0.7c0.2-0.2,0.4-0.4,0.6-0.5c0.2-0.1,0.5-0.2,0.8-0.2c0.6,0,1,0.2,1.3,0.6
			c0.3,0.4,0.5,1,0.5,1.7H32.3z M35,80.5c0-0.2,0-0.4-0.1-0.6c-0.1-0.2-0.1-0.3-0.2-0.5c-0.1-0.1-0.2-0.2-0.4-0.3
			C34,79,33.9,79,33.6,79c-0.2,0-0.4,0-0.6,0.1c-0.2,0.1-0.3,0.2-0.4,0.3c-0.1,0.1-0.2,0.3-0.3,0.5c-0.1,0.2-0.1,0.4-0.1,0.6H35z"/>
		<path class="st2" d="M36.9,82.8h-0.5v-4.1h0.5v0.8h0c0.1-0.3,0.3-0.6,0.5-0.7c0.2-0.1,0.5-0.2,0.8-0.2v0.5c-0.3,0-0.5,0-0.7,0.1
			c-0.2,0.1-0.3,0.2-0.4,0.4S37,79.9,37,80.1c0,0.2-0.1,0.4-0.1,0.7V82.8z"/>
		<path class="st2" d="M39.5,82.8H39v-4.1h0.5v0.6h0c0.1-0.2,0.3-0.4,0.5-0.5c0.2-0.1,0.5-0.2,0.8-0.2c0.2,0,0.4,0,0.5,0.1
			c0.1,0,0.2,0.1,0.3,0.2c0.1,0.1,0.2,0.2,0.2,0.3c0.1,0.1,0.1,0.2,0.2,0.3c0.1-0.3,0.3-0.5,0.6-0.6s0.5-0.2,0.8-0.2
			c0.3,0,0.5,0,0.7,0.1c0.2,0.1,0.3,0.2,0.4,0.4c0.1,0.2,0.2,0.3,0.2,0.5s0,0.4,0,0.6v2.6h-0.5V80c0-0.3-0.1-0.5-0.2-0.7
			c-0.1-0.2-0.4-0.3-0.7-0.3c-0.2,0-0.3,0-0.5,0.1c-0.2,0.1-0.3,0.2-0.4,0.4c-0.1,0.1-0.1,0.2-0.1,0.2s-0.1,0.2-0.1,0.3
			c0,0.1,0,0.2,0,0.3c0,0.1,0,0.2,0,0.3v2.2h-0.5V80c0-0.3-0.1-0.5-0.2-0.7C41.3,79.1,41,79,40.7,79c-0.2,0-0.3,0-0.5,0.1
			c-0.2,0.1-0.3,0.2-0.4,0.4c-0.1,0.1-0.1,0.2-0.1,0.2s-0.1,0.2-0.1,0.3c0,0.1,0,0.2,0,0.3c0,0.1,0,0.2,0,0.3V82.8z"/>
		<path class="st2" d="M47.4,82.9c-0.3,0-0.5-0.1-0.7-0.1c-0.2-0.1-0.4-0.2-0.6-0.4c-0.2-0.2-0.3-0.4-0.4-0.7
			c-0.1-0.3-0.2-0.6-0.2-1c0-0.3,0-0.6,0.1-0.9c0.1-0.3,0.2-0.5,0.4-0.7c0.2-0.2,0.4-0.4,0.6-0.5c0.2-0.1,0.5-0.2,0.8-0.2
			c0.3,0,0.6,0.1,0.8,0.2c0.2,0.1,0.4,0.3,0.6,0.5c0.2,0.2,0.3,0.4,0.4,0.7c0.1,0.3,0.1,0.6,0.1,0.9c0,0.3,0,0.6-0.1,0.9
			c-0.1,0.3-0.2,0.5-0.4,0.7c-0.2,0.2-0.4,0.3-0.6,0.4C47.9,82.9,47.7,82.9,47.4,82.9z M48.8,80.8c0-0.2,0-0.5-0.1-0.7
			c-0.1-0.2-0.1-0.4-0.2-0.6c-0.1-0.2-0.3-0.3-0.4-0.4C47.9,79,47.6,79,47.4,79c-0.3,0-0.5,0-0.6,0.1c-0.2,0.1-0.3,0.2-0.4,0.4
			c-0.1,0.2-0.2,0.3-0.2,0.6S46,80.5,46,80.8c0,0.3,0,0.5,0.1,0.7c0.1,0.2,0.2,0.4,0.3,0.6c0.1,0.2,0.3,0.3,0.4,0.4
			c0.2,0.1,0.4,0.1,0.6,0.1c0.3,0,0.5,0,0.6-0.1c0.2-0.1,0.3-0.2,0.4-0.4c0.1-0.2,0.2-0.4,0.2-0.6C48.8,81.2,48.8,81,48.8,80.8z"/>
		<path class="st2" d="M50.5,81.1c0,0.3,0.1,0.5,0.2,0.7s0.2,0.3,0.4,0.4c0.1,0.1,0.3,0.2,0.5,0.2s0.4,0.1,0.6,0.1
			c0.3,0,0.5,0,0.7-0.1c0.2-0.1,0.3-0.2,0.5-0.3s0.2-0.2,0.3-0.4c0.1-0.1,0.1-0.3,0.1-0.5c0-0.2-0.1-0.4-0.2-0.5s-0.2-0.3-0.4-0.3
			c-0.2-0.1-0.3-0.2-0.6-0.2c-0.2-0.1-0.4-0.1-0.6-0.2c-0.2-0.1-0.4-0.1-0.6-0.2c-0.2-0.1-0.4-0.2-0.6-0.3s-0.3-0.3-0.4-0.5
			c-0.1-0.2-0.2-0.4-0.2-0.7c0-0.2,0-0.4,0.1-0.6s0.2-0.4,0.4-0.5c0.2-0.1,0.4-0.3,0.6-0.3c0.2-0.1,0.5-0.1,0.8-0.1
			c0.3,0,0.6,0,0.9,0.1s0.4,0.2,0.6,0.4c0.2,0.2,0.3,0.3,0.4,0.5s0.1,0.4,0.1,0.7h-0.5c0-0.2,0-0.4-0.1-0.6
			c-0.1-0.2-0.2-0.3-0.3-0.4s-0.3-0.2-0.5-0.2c-0.2,0-0.3-0.1-0.5-0.1c-0.3,0-0.5,0-0.7,0.1c-0.2,0.1-0.3,0.2-0.5,0.3
			c-0.1,0.1-0.2,0.3-0.2,0.4c0,0.2-0.1,0.3,0,0.4c0,0.2,0.1,0.3,0.2,0.4s0.3,0.2,0.4,0.3c0.2,0.1,0.4,0.1,0.6,0.2s0.4,0.1,0.6,0.1
			s0.4,0.1,0.6,0.2c0.2,0.1,0.4,0.2,0.5,0.3c0.2,0.1,0.3,0.3,0.4,0.5c0.1,0.2,0.1,0.4,0.1,0.7c0,0.5-0.2,0.9-0.6,1.2
			C53.2,82.8,52.7,83,52,83c-0.3,0-0.6,0-0.8-0.1c-0.3-0.1-0.5-0.2-0.7-0.4c-0.2-0.2-0.3-0.4-0.4-0.6S50,81.4,50,81.1H50.5z"/>
		<path class="st2" d="M55.4,80.9c0,0.2,0,0.4,0.1,0.6c0.1,0.2,0.1,0.4,0.3,0.5c0.1,0.1,0.3,0.3,0.4,0.4c0.2,0.1,0.4,0.1,0.6,0.1
			c0.3,0,0.6-0.1,0.8-0.2c0.2-0.2,0.4-0.4,0.4-0.7h0.5c-0.1,0.2-0.1,0.4-0.2,0.5c-0.1,0.2-0.2,0.3-0.4,0.4c-0.1,0.1-0.3,0.2-0.5,0.3
			c-0.2,0.1-0.4,0.1-0.7,0.1c-0.3,0-0.6-0.1-0.9-0.2c-0.2-0.1-0.4-0.3-0.6-0.5c-0.2-0.2-0.3-0.4-0.3-0.7c-0.1-0.3-0.1-0.5-0.1-0.9
			c0-0.3,0-0.6,0.1-0.9c0.1-0.3,0.2-0.5,0.4-0.7c0.2-0.2,0.4-0.4,0.6-0.5c0.2-0.1,0.5-0.2,0.8-0.2c0.6,0,1,0.2,1.3,0.6
			c0.3,0.4,0.5,1,0.5,1.7H55.4z M58.1,80.5c0-0.2,0-0.4-0.1-0.6c-0.1-0.2-0.1-0.3-0.2-0.5s-0.2-0.2-0.4-0.3C57.2,79,57,79,56.8,79
			c-0.2,0-0.4,0-0.6,0.1c-0.2,0.1-0.3,0.2-0.4,0.3c-0.1,0.1-0.2,0.3-0.3,0.5c-0.1,0.2-0.1,0.4-0.1,0.6H58.1z"/>
		<path class="st2" d="M62.5,80c-0.1-0.3-0.2-0.6-0.4-0.7S61.5,79,61.2,79c-0.2,0-0.5,0.1-0.6,0.2c-0.2,0.1-0.3,0.2-0.4,0.4
			s-0.2,0.4-0.2,0.6c-0.1,0.2-0.1,0.4-0.1,0.6c0,0.2,0,0.4,0.1,0.6c0.1,0.2,0.1,0.4,0.2,0.6s0.3,0.3,0.4,0.4
			c0.2,0.1,0.4,0.1,0.6,0.1c0.4,0,0.6-0.1,0.9-0.3c0.2-0.2,0.4-0.5,0.4-0.8H63c0,0.2-0.1,0.4-0.2,0.6c-0.1,0.2-0.2,0.4-0.4,0.5
			c-0.1,0.1-0.3,0.2-0.5,0.3c-0.2,0.1-0.4,0.1-0.7,0.1c-0.3,0-0.6-0.1-0.9-0.2c-0.2-0.1-0.4-0.3-0.6-0.5s-0.3-0.4-0.3-0.7
			c-0.1-0.3-0.1-0.6-0.1-0.9c0-0.3,0-0.6,0.1-0.8s0.2-0.5,0.4-0.7c0.2-0.2,0.4-0.4,0.6-0.5c0.2-0.1,0.5-0.2,0.8-0.2
			c0.5,0,0.9,0.1,1.2,0.3c0.3,0.2,0.5,0.6,0.6,1.1H62.5z"/>
		<path class="st2" d="M66.8,78.7h0.5v4.1h-0.5v-0.6c-0.1,0.1-0.1,0.2-0.2,0.2c-0.1,0.1-0.2,0.2-0.3,0.2c-0.1,0.1-0.2,0.1-0.4,0.2
			c-0.1,0-0.3,0.1-0.5,0.1c-0.3,0-0.5,0-0.7-0.1c-0.2-0.1-0.3-0.2-0.5-0.3c-0.1-0.1-0.2-0.3-0.2-0.5C64,81.8,64,81.6,64,81.4v-2.7
			h0.5v2.7c0,0.4,0.1,0.6,0.2,0.8c0.2,0.2,0.4,0.3,0.8,0.3c0.2,0,0.4,0,0.5-0.1c0.2-0.1,0.3-0.2,0.4-0.3s0.2-0.3,0.2-0.5
			c0.1-0.2,0.1-0.4,0.1-0.6V78.7z"/>
		<path class="st2" d="M68.9,82.8h-0.5v-4.1h0.5v0.8h0c0.1-0.3,0.3-0.6,0.5-0.7c0.2-0.1,0.5-0.2,0.8-0.2v0.5c-0.3,0-0.5,0-0.7,0.1
			c-0.2,0.1-0.3,0.2-0.4,0.4c-0.1,0.2-0.2,0.3-0.2,0.5c0,0.2-0.1,0.4-0.1,0.7V82.8z"/>
		<path class="st2" d="M71.4,80.9c0,0.2,0,0.4,0.1,0.6c0.1,0.2,0.1,0.4,0.3,0.5c0.1,0.1,0.3,0.3,0.4,0.4c0.2,0.1,0.4,0.1,0.6,0.1
			c0.3,0,0.6-0.1,0.8-0.2c0.2-0.2,0.4-0.4,0.4-0.7h0.5c-0.1,0.2-0.1,0.4-0.2,0.5c-0.1,0.2-0.2,0.3-0.4,0.4c-0.1,0.1-0.3,0.2-0.5,0.3
			c-0.2,0.1-0.4,0.1-0.7,0.1c-0.3,0-0.6-0.1-0.9-0.2c-0.2-0.1-0.4-0.3-0.6-0.5c-0.2-0.2-0.3-0.4-0.3-0.7c-0.1-0.3-0.1-0.5-0.1-0.9
			c0-0.3,0-0.6,0.1-0.9c0.1-0.3,0.2-0.5,0.4-0.7c0.2-0.2,0.4-0.4,0.6-0.5c0.2-0.1,0.5-0.2,0.8-0.2c0.6,0,1,0.2,1.3,0.6
			c0.3,0.4,0.5,1,0.5,1.7H71.4z M74.1,80.5c0-0.2,0-0.4-0.1-0.6c-0.1-0.2-0.1-0.3-0.2-0.5s-0.2-0.2-0.4-0.3C73.2,79,73,79,72.8,79
			c-0.2,0-0.4,0-0.6,0.1c-0.2,0.1-0.3,0.2-0.4,0.3c-0.1,0.1-0.2,0.3-0.3,0.5c-0.1,0.2-0.1,0.4-0.1,0.6H74.1z"/>
		<path class="st2" d="M77.7,77.4h-1.1v3h-0.4v-3h-1.1v-0.3h2.6V77.4z M81.8,80.4h-0.4v-3h0l-1.2,3H80l-1.2-3h0v3h-0.4v-3.4h0.8
			l1,2.5h0l0.9-2.5h0.8V80.4z"/>
	</g>
</g>
</svg>
