<?xml version="1.0" encoding="utf-8"?>
<!-- Generator: Adobe Illustrator 22.0.1, SVG Export Plug-In . SVG Version: 6.00 Build 0)  -->
<svg version="1.1" xmlns="http://www.w3.org/2000/svg" xmlns:xlink="http://www.w3.org/1999/xlink" x="0px" y="0px"
	 viewBox="0 0 100 100" style="enable-background:new 0 0 100 100;" xml:space="preserve">
<style type="text/css">
	.st0{fill:#6CB1FF;}
</style>
<g id="sun">
</g>
<g id="snowflake">
	<polygon class="st0" points="34,3.4 39.3,3.4 39.3,11.3 45.9,4.7 49.8,8.7 39.3,19.2 39.3,45.6 61.7,32.4 65.6,17.9 70.9,19.2 
		68.3,28.4 76.2,24.5 78.8,29.8 70.9,33.7 81.5,36.4 80.1,41.6 64.3,37.7 41.9,50.9 64.3,62.7 80.1,60.1 80.1,65.4 70.9,66.7 
		78.8,71.9 76.2,75.9 69.6,71.9 72.2,81.2 67,82.5 61.7,68 39.3,54.8 39.3,81.2 51.1,91.7 47.2,95.7 39.3,89.1 39.3,97 34,97 
		34,89.1 	"/>
</g>
</svg>
