<?xml version="1.0" encoding="utf-8"?>
<!-- Generator: Adobe Illustrator 19.0.0, SVG Export Plug-In . SVG Version: 6.00 Build 0)  -->
<svg version="1.1" id="Layer_1" xmlns="http://www.w3.org/2000/svg" xmlns:xlink="http://www.w3.org/1999/xlink" x="0px" y="0px"
	 viewBox="-49 141 512 512" style="enable-background:new -49 141 512 512;" xml:space="preserve">
<style type="text/css">
	.st0{fill:#FFFFFF;}
</style>
<path class="st0" d="M303,237c0-53-43-96-96-96s-96,43-96,96s43,96,96,96S303,290,303,237z M184.6,382.1
	C125.3,345.8,29.2,335.8-19.2,333c-16.3-0.9-29.8,11.5-29.8,27.1v222.8c0,14.3,11.6,26.3,26.5,27c43.7,2.3,132,10.7,193,41.4
	c9.4,4.7,20.5-1.7,20.5-11.9v-246C191,388.9,188.7,384.6,184.6,382.1L184.6,382.1z M433.2,333c-48.4,2.7-144.5,12.7-203.8,49.1
	c-4.1,2.5-6.4,7-6.4,11.6v245.8c0,10.2,11.1,16.6,20.5,11.9c61-30.7,149.3-39.1,193-41.4c14.9-0.8,26.5-12.7,26.5-27.1V360.1
	C463,344.5,449.5,332.1,433.2,333z"/>
</svg>
