<?xml version="1.0" encoding="utf-8"?>
<!-- Generator: Adobe Illustrator 19.0.0, SVG Export Plug-In . SVG Version: 6.00 Build 0)  -->
<svg version="1.1" id="Layer_1" xmlns="http://www.w3.org/2000/svg" xmlns:xlink="http://www.w3.org/1999/xlink" x="0px" y="0px"
	 viewBox="-49 141 512 512" style="enable-background:new -49 141 512 512;" xml:space="preserve">
<style type="text/css">
	.st0{fill:#FFFFFF;}
</style>
<path class="st0" d="M395.8,432.1l42.6,24.6c4.9,2.8,7.1,8.6,5.5,14c-11.1,35.6-30,67.8-54.7,94.6c-3.8,4.1-10,5.1-14.8,2.3
	l-42.6-24.6c-17.9,15.4-38.5,27.3-60.8,35.1v49.2c0,5.6-3.9,10.5-9.4,11.7c-35,7.8-72.5,8.3-109.2,0c-5.5-1.2-9.4-6.1-9.4-11.7
	v-49.2c-22.2-7.9-42.8-19.8-60.8-35.1l-42.6,24.6c-4.9,2.8-11,1.9-14.8-2.3c-24.7-26.7-43.6-58.9-54.7-94.6
	c-1.7-5.4,0.6-11.2,5.5-14l42.6-24.6c-4.3-23.2-4.3-47,0-70.2l-42.6-24.6c-4.9-2.8-7.1-8.6-5.5-14c11.1-35.6,30-67.8,54.7-94.6
	c3.8-4.1,10-5.1,14.8-2.3l42.6,24.6c17.9-15.4,38.5-27.3,60.8-35.1v-49.2c0-5.6,3.9-10.5,9.4-11.7c35-7.9,72.5-8.3,109.2,0
	c5.5,1.2,9.4,6.1,9.4,11.7v49.2c22.2,7.9,42.8,19.8,60.8,35.1l42.6-24.6c4.9-2.8,11-1.9,14.8,2.3c24.7,26.7,43.6,58.9,54.7,94.6
	c1.7,5.4-0.6,11.2-5.5,14l-42.6,24.6C400.1,385.1,400.1,408.9,395.8,432.1L395.8,432.1z M287,397c0-44.1-35.9-80-80-80
	s-80,35.9-80,80s35.9,80,80,80S287,441.1,287,397z"/>
</svg>
