<?xml version="1.0" encoding="utf-8"?>
<!-- Generator: Adobe Illustrator 19.0.0, SVG Export Plug-In . SVG Version: 6.00 Build 0)  -->
<svg version="1.1" id="Layer_1" xmlns="http://www.w3.org/2000/svg" xmlns:xlink="http://www.w3.org/1999/xlink" x="0px" y="0px"
	 viewBox="-17 141 576 512" style="enable-background:new -17 141 576 512;" xml:space="preserve">
<style type="text/css">
	.st0{fill:#FFFFFF;}
</style>
<path class="st0" d="M471,453.7V597c0,13.3-10.7,24-24,24H331c-6.6,0-12-5.4-12-12V497c0-6.6-5.4-12-12-12h-72c-6.6,0-12,5.4-12,12
	v112c0,6.6-5.4,12-12,12H95c-13.3,0-24-10.7-24-24V453.7c0-3.6,1.6-7,4.4-9.3l188-154.8c4.4-3.6,10.8-3.6,15.3,0l188,154.8
	C469.4,446.7,471,450.1,471,453.7L471,453.7z M554.6,392.8L471,323.9V185.4c0-6.6-5.4-12-12-12h-56c-6.6,0-12,5.4-12,12V258
	l-89.5-73.7c-17.7-14.6-43.3-14.6-61,0L-12.6,392.8c-5.1,4.2-5.8,11.8-1.6,16.9l25.5,31c4.2,5.1,11.8,5.8,16.9,1.6l235.2-193.7
	c4.4-3.6,10.8-3.6,15.3,0l235.2,193.7c5.1,4.2,12.7,3.5,16.9-1.6l25.5-31C560.5,404.5,559.7,397,554.6,392.8z"/>
</svg>
