<?xml version="1.0" encoding="utf-8"?>
<!-- Generator: Adobe Illustrator 22.0.1, SVG Export Plug-In . SVG Version: 6.00 Build 0)  -->
<svg version="1.1" xmlns="http://www.w3.org/2000/svg" xmlns:xlink="http://www.w3.org/1999/xlink" x="0px" y="0px"
	 viewBox="0 0 100 100" style="enable-background:new 0 0 100 100;" xml:space="preserve">
<style type="text/css">
	.st0{fill:#DA463A;}
	.st1{fill:#6CB1FF;}
</style>
<g id="sun">
	<path class="st0" d="M48.5,32v2.1c0,0-8.5-0.5-8.5,7.9s8.5,7.4,8.5,7.4V52c0,0-11.1,0-11.1-10S48.5,32,48.5,32z"/>
	<rect x="29" y="41" class="st0" width="6.3" height="2.1"/>
	<rect x="31.1" y="33" transform="matrix(0.866 0.5 -0.5 0.866 21.6387 -12.5734)" class="st0" width="6.3" height="2.1"/>
	<rect x="31.1" y="48.9" transform="matrix(0.866 -0.5 0.5 0.866 -20.3754 23.8311)" class="st0" width="6.3" height="2.1"/>
	<rect x="36.9" y="54.2" transform="matrix(0.5 -0.866 0.866 0.5 -27.7747 62.3295)" class="st0" width="6.3" height="2.1"/>
	
		<rect x="44.3" y="56.3" transform="matrix(6.123234e-17 -1 1 6.123234e-17 -9.8451 104.8169)" class="st0" width="6.3" height="2.1"/>
	
		<rect x="44.3" y="25.1" transform="matrix(6.123234e-17 -1 1 6.123234e-17 21.3169 73.6549)" class="st0" width="6.3" height="2.1"/>
	<rect x="36.4" y="27.2" transform="matrix(0.5467 0.8373 -0.8373 0.5467 41.613 -20.3075)" class="st0" width="6.3" height="2.1"/>
</g>
<g id="snowflake">
	<polygon class="st1" points="50.1,23 52.2,23 52.2,26.2 54.9,23.5 56.5,25.1 52.2,29.3 52.2,39.9 61.2,34.6 62.8,28.8 64.9,29.3 
		63.9,33 67,31.5 68.1,33.6 64.9,35.1 69.1,36.2 68.6,38.3 62.3,36.7 53.3,42 62.3,46.8 68.6,45.7 68.6,47.8 64.9,48.4 68.1,50.5 
		67,52 64.4,50.5 65.4,54.2 63.3,54.7 61.2,48.9 52.2,43.6 52.2,54.2 57,58.4 55.4,60 52.2,57.3 52.2,60.5 50.1,60.5 50.1,57.3 	"/>
	<g>
		<path d="M20.4,69.9c0-0.6,0-1.2-0.1-1.8c0.1,0,0.2,0,0.4,0c0.1,0,0.2,0,0.3,0c0.1,0,0.2,0,0.3,0c0.1,0,0.2,0,0.3,0
			c0,0.6-0.1,1.2-0.1,1.8c0,0.6,0,1.2,0,1.8v2.4c0,0.6,0,1.2,0,1.8c0,0.6,0,1.2,0.1,1.8c-0.2,0-0.4,0-0.7,0s-0.5,0-0.7,0
			c0-0.6,0.1-1.2,0.1-1.8c0-0.6,0-1.2,0-1.8v-1.3c-0.5,0-1,0-1.5,0c-0.5,0-1,0-1.5,0c-0.5,0-1,0-1.5,0s-1,0-1.5,0v1.3
			c0,0.6,0,1.2,0,1.8c0,0.6,0,1.2,0.1,1.8c-0.2,0-0.4,0-0.7,0s-0.5,0-0.7,0c0-0.6,0.1-1.2,0.1-1.8c0-0.6,0-1.2,0-1.8v-2.4
			c0-0.6,0-1.2,0-1.8c0-0.6,0-1.2-0.1-1.8c0.1,0,0.2,0,0.4,0c0.1,0,0.2,0,0.3,0c0.1,0,0.2,0,0.3,0c0.1,0,0.2,0,0.3,0
			c0,0.6-0.1,1.2-0.1,1.8c0,0.6,0,1.2,0,1.8v0.5c0.5,0,1,0,1.5,0c0.5,0,1,0,1.5,0c0.5,0,1,0,1.5,0c0.5,0,1,0,1.5,0v-0.5
			C20.4,71.1,20.4,70.5,20.4,69.9z"/>
		<path d="M23.5,74.4c0-0.6,0.1-1.2,0.3-1.6s0.5-0.8,0.8-1.1s0.7-0.5,1.1-0.6c0.4-0.1,0.8-0.2,1.2-0.2c0.4,0,0.8,0.1,1.2,0.2
			s0.8,0.3,1.1,0.6c0.3,0.3,0.6,0.6,0.8,1.1c0.2,0.4,0.3,1,0.3,1.6c0,0.6-0.1,1.2-0.3,1.6c-0.2,0.4-0.5,0.8-0.8,1.1
			c-0.3,0.3-0.7,0.5-1.1,0.6s-0.8,0.2-1.2,0.2c-0.4,0-0.8-0.1-1.2-0.2c-0.4-0.1-0.8-0.3-1.1-0.6s-0.6-0.6-0.8-1.1
			S23.5,75.1,23.5,74.4z M24.7,74.4c0,0.4,0,0.8,0.1,1.1c0.1,0.4,0.2,0.7,0.4,1c0.2,0.3,0.4,0.5,0.7,0.7c0.3,0.2,0.6,0.3,1,0.3
			c0.4,0,0.8-0.1,1-0.3c0.3-0.2,0.5-0.4,0.7-0.7c0.2-0.3,0.3-0.6,0.4-1c0.1-0.4,0.1-0.7,0.1-1.1c0-0.4,0-0.8-0.1-1.1s-0.2-0.7-0.4-1
			c-0.2-0.3-0.4-0.5-0.7-0.7c-0.3-0.2-0.6-0.3-1-0.3c-0.4,0-0.8,0.1-1,0.3c-0.3,0.2-0.5,0.4-0.7,0.7c-0.2,0.3-0.3,0.6-0.4,1
			C24.7,73.7,24.7,74.1,24.7,74.4z"/>
		<path d="M31.8,75.6c0-0.5,0-0.9,0-1.3c0-0.4,0-0.7,0-1c0-0.3,0-0.7,0-1.1c0-0.4,0-0.8,0-1.2c0.2,0,0.4,0.1,0.6,0.1
			c0.1,0,0.3,0,0.6-0.1c0,0.6-0.1,1.2-0.1,1.8c0,0.7,0,1.4,0,2.1c0,0.5,0,0.9,0.1,1.1s0.2,0.5,0.3,0.6c0.1,0.1,0.3,0.3,0.5,0.4
			s0.4,0.1,0.7,0.1c0.4,0,0.7-0.1,1-0.3c0.3-0.2,0.5-0.4,0.6-0.6c0.1-0.2,0.1-0.3,0.2-0.4c0-0.1,0.1-0.3,0.1-0.4c0-0.2,0-0.4,0-0.8
			c0-0.3,0-0.8,0-1.3v-1.2c0-0.2,0-0.4,0-0.6c0-0.2,0-0.4,0-0.5c0.1,0,0.2,0,0.3,0c0.1,0,0.2,0,0.3,0c0.1,0,0.2,0,0.3,0
			c0.1,0,0.2,0,0.3,0c0,0.7-0.1,1.4-0.1,2.1c0,0.7,0,1.4,0,2.1c0,0.4,0,0.8,0,1.2c0,0.4,0,0.8,0,1.2c-0.2,0-0.4,0-0.5,0
			s-0.4,0-0.5,0c0-0.1,0-0.2,0-0.3c0-0.1,0-0.2,0-0.3v-0.6h0c-0.2,0.4-0.6,0.8-0.9,1c-0.4,0.2-0.8,0.3-1.2,0.3
			c-0.7,0-1.3-0.2-1.7-0.6C32,76.9,31.8,76.4,31.8,75.6z"/>
		<path d="M39.7,76.8c0.1,0.1,0.2,0.2,0.4,0.3c0.1,0.1,0.3,0.2,0.5,0.2c0.2,0.1,0.4,0.1,0.6,0.1c0.2,0,0.3,0,0.5-0.1
			c0.2-0.1,0.3-0.1,0.4-0.2s0.2-0.2,0.3-0.4c0.1-0.2,0.1-0.3,0.1-0.5c0-0.3-0.1-0.5-0.2-0.7c-0.2-0.2-0.4-0.3-0.6-0.4
			c-0.2-0.1-0.5-0.2-0.8-0.3c-0.3-0.1-0.6-0.2-0.8-0.3c-0.2-0.1-0.4-0.3-0.6-0.5c-0.2-0.2-0.2-0.5-0.2-0.9c0-0.3,0.1-0.6,0.2-0.8
			c0.1-0.3,0.3-0.5,0.4-0.7c0.2-0.2,0.4-0.3,0.7-0.4c0.3-0.1,0.6-0.2,1-0.2c0.3,0,0.6,0,0.9,0.1c0.2,0.1,0.5,0.2,0.7,0.3
			c-0.1,0.1-0.1,0.3-0.2,0.5c-0.1,0.2-0.1,0.4-0.1,0.5h-0.2c-0.1-0.2-0.2-0.4-0.4-0.6c-0.2-0.2-0.5-0.3-0.8-0.3
			c-0.1,0-0.3,0-0.4,0.1s-0.3,0.1-0.4,0.2c-0.1,0.1-0.2,0.2-0.3,0.4s-0.1,0.3-0.1,0.5c0,0.3,0.1,0.5,0.2,0.7
			c0.2,0.2,0.4,0.3,0.6,0.4c0.2,0.1,0.5,0.2,0.8,0.2s0.6,0.2,0.8,0.3c0.2,0.1,0.4,0.3,0.6,0.5c0.2,0.2,0.2,0.5,0.2,0.9
			c0,0.3-0.1,0.5-0.2,0.8c-0.1,0.3-0.3,0.5-0.5,0.7s-0.5,0.4-0.8,0.5c-0.3,0.1-0.7,0.2-1,0.2c-0.4,0-0.8,0-1.1-0.1
			c-0.3-0.1-0.5-0.2-0.7-0.3c0.1-0.1,0.1-0.3,0.2-0.5s0.1-0.4,0.1-0.5h0.2C39.6,76.5,39.6,76.6,39.7,76.8z"/>
		<path d="M44.5,74.6c0-1.1,0.3-2,0.8-2.7s1.3-1,2.4-1c0.5,0,0.9,0.1,1.3,0.2c0.4,0.2,0.7,0.4,0.9,0.6s0.4,0.6,0.5,0.9
			c0.1,0.3,0.2,0.7,0.2,1.1c0,0.1,0,0.2,0,0.3s0,0.2,0,0.3c-0.5,0-1,0-1.5,0c-0.5,0-1,0-1.5,0c-0.3,0-0.6,0-0.9,0
			c-0.3,0-0.6,0-0.9,0c0,0,0,0.1,0,0.2v0.2c0,0.4,0.1,0.7,0.2,1s0.3,0.6,0.5,0.8c0.2,0.2,0.5,0.4,0.8,0.5c0.3,0.1,0.6,0.2,1,0.2
			c0.2,0,0.4,0,0.6-0.1c0.2-0.1,0.4-0.1,0.6-0.2c0.2-0.1,0.4-0.2,0.5-0.3c0.2-0.1,0.3-0.3,0.4-0.4l0.1,0l-0.1,0.7
			c-0.3,0.2-0.6,0.4-1,0.6c-0.4,0.2-0.8,0.2-1.3,0.2c-0.5,0-1-0.1-1.4-0.2c-0.4-0.2-0.8-0.4-1.1-0.7s-0.5-0.6-0.7-1
			C44.6,75.5,44.5,75.1,44.5,74.6z M47.7,71.4c-0.3,0-0.6,0.1-0.9,0.2c-0.2,0.2-0.4,0.4-0.6,0.6c-0.2,0.2-0.3,0.5-0.4,0.8
			c-0.1,0.3-0.1,0.6-0.1,0.8c0.3,0,0.6,0,0.9,0c0.3,0,0.6,0,0.9,0c0.3,0,0.6,0,0.9,0c0.3,0,0.6,0,0.9,0c0-0.3,0-0.5-0.1-0.8
			c0-0.3-0.1-0.5-0.3-0.8c-0.1-0.2-0.3-0.4-0.5-0.6C48.4,71.5,48.1,71.4,47.7,71.4z"/>
		<path d="M59.2,77.4c-0.2,0.1-0.4,0.2-0.7,0.2c-0.3,0.1-0.5,0.1-0.9,0.2c-0.3,0.1-0.7,0.1-1,0.1c-0.7,0-1.4-0.1-2-0.3
			c-0.6-0.2-1.2-0.5-1.6-1c-0.5-0.4-0.8-1-1.1-1.6c-0.3-0.6-0.4-1.3-0.4-2.1s0.1-1.5,0.4-2.1s0.6-1.1,1.1-1.6c0.5-0.4,1-0.8,1.7-1
			c0.6-0.2,1.4-0.3,2.1-0.3c0.6,0,1.2,0.1,1.7,0.2s1,0.3,1.4,0.5c-0.1,0.1-0.1,0.3-0.2,0.5c0,0.2-0.1,0.4-0.1,0.6l-0.1,0
			c-0.1-0.1-0.2-0.2-0.4-0.4c-0.2-0.1-0.4-0.3-0.6-0.4c-0.2-0.1-0.5-0.2-0.8-0.3c-0.3-0.1-0.6-0.1-0.9-0.1c-0.6,0-1.1,0.1-1.5,0.3
			c-0.5,0.2-0.9,0.5-1.2,0.8c-0.4,0.4-0.6,0.8-0.8,1.4c-0.2,0.6-0.3,1.2-0.3,2s0.1,1.4,0.3,2c0.2,0.6,0.5,1,0.8,1.4
			c0.3,0.4,0.8,0.6,1.2,0.8c0.5,0.2,1,0.3,1.5,0.3c0.3,0,0.6,0,0.9-0.1s0.5-0.2,0.8-0.3c0.2-0.1,0.5-0.2,0.6-0.4
			c0.2-0.1,0.4-0.3,0.5-0.4l0.1,0.1l-0.1,0.8C59.5,77.3,59.4,77.3,59.2,77.4z"/>
		<path d="M60.8,74.4c0-0.6,0.1-1.2,0.3-1.6c0.2-0.4,0.5-0.8,0.8-1.1c0.3-0.3,0.7-0.5,1.1-0.6c0.4-0.1,0.8-0.2,1.2-0.2
			c0.4,0,0.8,0.1,1.2,0.2c0.4,0.1,0.8,0.3,1.1,0.6c0.3,0.3,0.6,0.6,0.8,1.1c0.2,0.4,0.3,1,0.3,1.6c0,0.6-0.1,1.2-0.3,1.6
			c-0.2,0.4-0.5,0.8-0.8,1.1c-0.3,0.3-0.7,0.5-1.1,0.6c-0.4,0.1-0.8,0.2-1.2,0.2c-0.4,0-0.8-0.1-1.2-0.2c-0.4-0.1-0.8-0.3-1.1-0.6
			c-0.3-0.3-0.6-0.6-0.8-1.1C60.9,75.6,60.8,75.1,60.8,74.4z M62,74.4c0,0.4,0,0.8,0.1,1.1c0.1,0.4,0.2,0.7,0.4,1
			c0.2,0.3,0.4,0.5,0.7,0.7c0.3,0.2,0.6,0.3,1,0.3c0.4,0,0.8-0.1,1-0.3c0.3-0.2,0.5-0.4,0.7-0.7c0.2-0.3,0.3-0.6,0.4-1
			c0.1-0.4,0.1-0.7,0.1-1.1c0-0.4,0-0.8-0.1-1.1s-0.2-0.7-0.4-1c-0.2-0.3-0.4-0.5-0.7-0.7c-0.3-0.2-0.6-0.3-1-0.3
			c-0.4,0-0.8,0.1-1,0.3c-0.3,0.2-0.5,0.4-0.7,0.7c-0.2,0.3-0.3,0.6-0.4,1S62,74.1,62,74.4z"/>
		<path d="M69.2,72.4c0-0.5,0-0.9-0.1-1.3c0.3,0,0.5,0.1,0.6,0.1c0.1,0,0.2,0,0.2,0c0.1,0,0.2,0,0.3,0c0,0.4,0,0.7,0,1.1h0
			c0.5-0.8,1.2-1.3,2.1-1.3c0.2,0,0.5,0,0.7,0.1c0.2,0.1,0.4,0.2,0.6,0.3s0.3,0.3,0.5,0.4s0.2,0.4,0.3,0.6h0c0.2-0.4,0.5-0.8,0.9-1
			c0.4-0.2,0.8-0.4,1.3-0.4c0.3,0,0.6,0,0.9,0.1c0.3,0.1,0.5,0.2,0.7,0.4c0.2,0.2,0.3,0.4,0.4,0.7c0.1,0.3,0.2,0.6,0.2,1
			c0,0.2,0,0.3,0,0.5c0,0.2,0,0.4,0,0.7c0,0.2,0,0.5,0,0.8c0,0.3,0,0.7,0,1.1c0,0.3,0,0.5,0,0.7s0,0.5,0,0.8c-0.1,0-0.2,0-0.3,0
			s-0.2,0-0.3,0c-0.1,0-0.2,0-0.3,0s-0.2,0-0.3,0c0-0.2,0.1-0.7,0.1-1.4c0-0.7,0-1.7,0-3c0-0.2,0-0.5-0.1-0.7
			c-0.1-0.2-0.1-0.4-0.2-0.5s-0.3-0.3-0.4-0.4c-0.2-0.1-0.4-0.1-0.7-0.1c-0.3,0-0.6,0.1-0.9,0.2s-0.4,0.3-0.5,0.5
			c-0.1,0.1-0.1,0.2-0.2,0.3c0,0.1-0.1,0.3-0.1,0.5s0,0.5,0,0.9c0,0.4,0,0.9,0,1.6c0,0.4,0,0.8,0,1.1c0,0.3,0,0.7,0,1.1
			c-0.2,0-0.4,0-0.6,0c-0.2,0-0.4,0-0.6,0c0-0.5,0.1-1,0.1-1.6s0-1.1,0-1.6c0-0.4,0-0.8,0-1s0-0.4,0-0.6s0-0.3-0.1-0.4
			c0-0.1-0.1-0.2-0.1-0.3c-0.1-0.2-0.3-0.3-0.5-0.5c-0.2-0.1-0.4-0.2-0.7-0.2c-0.6,0-1.1,0.2-1.4,0.6c-0.3,0.4-0.4,1-0.4,1.7v1.2
			c0,0.4,0,0.9,0,1.3c0,0.5,0,0.9,0.1,1.3c-0.2,0-0.4,0-0.6,0c-0.2,0-0.4,0-0.6,0c0-0.4,0.1-0.8,0.1-1.3c0-0.5,0-0.9,0-1.3v-1.5
			C69.2,73.3,69.2,72.9,69.2,72.4z"/>
		<path d="M82,68.6c-0.3,0-0.6,0-0.9,0c-0.3,0-0.6,0-0.9,0c0-0.1,0.1-0.2,0.1-0.3c0-0.1,0-0.1-0.1-0.3c0.4,0,0.7,0,1.1,0
			s0.7,0,1.1,0s0.7,0,1.1,0s0.7,0,1.1,0c0,0.1-0.1,0.2-0.1,0.3c0,0.1,0,0.2,0.1,0.3c-0.3,0-0.6,0-0.9,0c-0.3,0-0.6,0-0.9,0v2
			c0,0.6,0,1.1,0,1.7c0,0.5,0,1.1,0,1.7c-0.2,0-0.3-0.1-0.4-0.1s-0.3,0-0.4,0.1c0-0.4,0-0.8,0-1.3s0-1.1,0-1.9V68.6z M88.9,71.3
			c0.3-0.5,0.6-1.1,0.9-1.6s0.6-1.1,0.9-1.6h0.1l0.2,1.8c0,0.3,0.1,0.7,0.1,1s0.1,0.7,0.1,1.1c0,0.4,0.1,0.7,0.1,1s0.1,0.6,0.1,0.9
			c-0.2,0-0.3-0.1-0.4-0.1c-0.1,0-0.1,0-0.2,0c-0.1,0-0.1,0-0.2,0c0-0.4,0-0.8-0.1-1.3c0-0.5-0.1-1-0.1-1.5l-0.2-1.5h0l-0.6,1.1
			c-0.1,0.3-0.3,0.5-0.5,0.8c-0.2,0.3-0.3,0.6-0.4,0.9c-0.1,0.3-0.3,0.5-0.4,0.8c-0.1,0.3-0.2,0.5-0.3,0.6h-0.1
			c-0.2-0.5-0.4-0.9-0.7-1.4c-0.3-0.5-0.5-0.9-0.8-1.4l-0.7-1.3h0l-0.2,1.6c-0.1,0.4-0.1,0.9-0.1,1.3c0,0.4-0.1,0.9-0.1,1.3
			c-0.1,0-0.2-0.1-0.3-0.1c-0.1,0-0.2,0-0.3,0.1c0.1-0.6,0.2-1.2,0.3-1.8c0.1-0.6,0.2-1.3,0.3-2l0.3-2h0.1c0.2,0.5,0.5,1.1,0.8,1.6
			s0.6,1.1,0.9,1.6l0.7,1.3h0L88.9,71.3z"/>
	</g>
</g>
</svg>
