<?xml version="1.0" encoding="utf-8"?>
<!-- Generator: Adobe Illustrator 22.0.1, SVG Export Plug-In . SVG Version: 6.00 Build 0)  -->
<svg version="1.1" xmlns="http://www.w3.org/2000/svg" xmlns:xlink="http://www.w3.org/1999/xlink" x="0px" y="0px"
	 viewBox="0 0 100 100" style="enable-background:new 0 0 100 100;" xml:space="preserve">
<style type="text/css">
	.st0{fill:#DA463A;}
	.st1{fill:#6CB1FF;}
</style>
<g id="sun">
	<path class="st0" d="M53.1,67.3v-3.8c0,0,15.2,1,15.2-14.3S53.1,36,53.1,36v-4.8c0,0,20,0,20,18.1S53.1,67.3,53.1,67.3z"/>
	
		<rect x="76.8" y="47.4" transform="matrix(-1 -1.224647e-16 1.224647e-16 -1 165.0986 98.5493)" class="st0" width="11.4" height="3.8"/>
	<rect x="73" y="61.6" transform="matrix(-0.866 -0.5 0.5 -0.866 115.1753 157.9316)" class="st0" width="11.4" height="3.8"/>
	<rect x="73" y="33.1" transform="matrix(-0.866 0.5 -0.5 -0.866 164.45 25.9639)" class="st0" width="11.4" height="3.8"/>
	<rect x="62.6" y="23.6" transform="matrix(-0.5 0.866 -0.866 -0.5 124.5228 -20.8792)" class="st0" width="11.4" height="3.8"/>
	
		<rect x="49.3" y="19.8" transform="matrix(-1.836970e-16 1 -1 -1.836970e-16 76.6831 -33.2746)" class="st0" width="11.4" height="3.8"/>
	
		<rect x="49.3" y="75.9" transform="matrix(-1.836970e-16 1 -1 -1.836970e-16 132.7746 22.8169)" class="st0" width="11.4" height="3.8"/>
	
		<rect x="63.5" y="72.1" transform="matrix(-0.5467 -0.8373 0.8373 -0.5467 45.1405 172.4221)" class="st0" width="11.4" height="3.8"/>
</g>
<g id="snowflake">
	<polygon class="st1" points="50.2,83.5 46.4,83.5 46.4,77.8 41.7,82.5 38.8,79.7 46.4,72.1 46.4,53.1 30.3,62.6 27.4,73 23.6,72.1 
		25.5,65.4 19.8,68.3 17.9,64.5 23.6,61.6 16,59.7 17,55.9 28.4,58.8 44.5,49.3 28.4,40.7 17,42.6 17,38.8 23.6,37.9 17.9,34.1 
		19.8,31.2 24.6,34.1 22.7,27.4 26.5,26.5 30.3,36.9 46.4,46.4 46.4,27.4 37.9,19.8 40.7,17 46.4,21.7 46.4,16 50.2,16 50.2,21.7 	
		"/>
</g>
<g id="Layer_3">
</g>
</svg>
