<?xml version="1.0" encoding="utf-8"?>
<!-- Generator: Adobe Illustrator 19.0.0, SVG Export Plug-In . SVG Version: 6.00 Build 0)  -->
<svg version="1.1" id="Layer_1" xmlns="http://www.w3.org/2000/svg" xmlns:xlink="http://www.w3.org/1999/xlink" x="0px" y="0px"
	 viewBox="-255 347 100 100" style="enable-background:new -255 347 100 100;" xml:space="preserve">
<style type="text/css">
	.st0{fill:#6CB1FF;}
</style>
<g id="sun">
</g>
<g id="snowflake">
	<polygon class="st0" points="-181.2,443.8 -186.6,443.8 -186.6,435.9 -193.1,442.5 -197.1,438.5 -186.6,428 -186.6,401.6 
		-208.9,414.8 -212.8,429.3 -218.1,428 -215.6,418.8 -223.4,422.7 -226.1,417.4 -218.2,413.5 -228.8,410.8 -227.4,405.6 
		-211.6,409.5 -189.2,396.3 -211.6,384.5 -227.4,387.1 -227.4,381.8 -218.2,380.5 -226.1,375.3 -223.4,371.3 -216.9,375.3 
		-219.4,366 -214.2,364.7 -208.9,379.2 -186.6,392.4 -186.6,366 -198.4,355.5 -194.4,351.5 -186.6,358.1 -186.6,350.2 -181.2,350.2 
		-181.2,358.1 	"/>
</g>
</svg>
