<?xml version="1.0" encoding="utf-8"?>
<!-- Generator: Adobe Illustrator 19.0.0, SVG Export Plug-In . SVG Version: 6.00 Build 0)  -->
<svg version="1.1" id="Layer_1" xmlns="http://www.w3.org/2000/svg" xmlns:xlink="http://www.w3.org/1999/xlink" x="0px" y="0px"
	 viewBox="-255 347 100 100" style="enable-background:new -255 347 100 100;" xml:space="preserve">
<style type="text/css">
	.st0{fill:#DA463A;}
</style>
<g id="sun">
	<path class="st0" d="M-229.9,422v-5.4c0,0,21.6,1.3,21.6-20.2s-21.6-19-21.6-19v-6.7c0,0,28.3,0,28.3,25.6S-229.9,422-229.9,422z"
		/>
	<rect x="-196.2" y="393.6" class="st0" width="16.2" height="5.4"/>
	<rect x="-201.7" y="413.9" transform="matrix(0.866 0.5 -0.5 0.866 182.3661 152.6002)" class="st0" width="16.2" height="5.4"/>
	<rect x="-201.6" y="373.4" transform="matrix(0.866 -0.5 0.5 0.866 -214.0015 -46.3677)" class="st0" width="16.2" height="5.4"/>
	<rect x="-216.4" y="359.9" transform="matrix(0.5 -0.866 0.866 0.5 -418.1699 0.8898)" class="st0" width="16.2" height="5.4"/>
	<rect x="-229.9" y="349.1" class="st0" width="5.4" height="16.2"/>
	<rect x="-230" y="428.7" class="st0" width="5.4" height="16.2"/>
	
		<rect x="-215.1" y="428.7" transform="matrix(0.5467 0.8373 -0.8373 0.5467 267.3626 368.8857)" class="st0" width="16.2" height="5.4"/>
</g>
<g id="snowflake">
</g>
</svg>
