<?xml version="1.0" encoding="utf-8"?>
<!-- Generator: Adobe Illustrator 22.0.1, SVG Export Plug-In . SVG Version: 6.00 Build 0)  -->
<svg version="1.1" xmlns="http://www.w3.org/2000/svg" xmlns:xlink="http://www.w3.org/1999/xlink" x="0px" y="0px"
	 viewBox="0 0 100 100" style="enable-background:new 0 0 100 100;" xml:space="preserve">
<style type="text/css">
	.st0{fill:#DA463A;}
</style>
<g id="sun">
	<path class="st0" d="M68,24.9v5.4c0,0-21.6-1.3-21.6,20.2S68,69.5,68,69.5v6.7c0,0-28.3,0-28.3-25.6S68,24.9,68,24.9z"/>
	<rect x="18.1" y="47.9" class="st0" width="16.2" height="5.4"/>
	<rect x="23.5" y="27.6" transform="matrix(0.866 0.5 -0.5 0.866 19.4007 -11.7117)" class="st0" width="16.2" height="5.4"/>
	<rect x="23.5" y="68.1" transform="matrix(0.866 -0.5 0.5 0.866 -31.1931 25.2682)" class="st0" width="16.2" height="5.4"/>
	<rect x="38.3" y="81.6" transform="matrix(0.5 -0.866 0.866 0.5 -49.8388 82.3557)" class="st0" width="16.2" height="5.4"/>
	
		<rect x="57.2" y="87" transform="matrix(6.123234e-17 -1 1 6.123234e-17 -24.4385 155.0392)" class="st0" width="16.2" height="5.4"/>
	
		<rect x="57.2" y="7.4" transform="matrix(6.123234e-17 -1 1 6.123234e-17 55.2014 75.3993)" class="st0" width="16.2" height="5.4"/>
	<rect x="37" y="12.8" transform="matrix(0.5467 0.8373 -0.8373 0.5467 33.3976 -30.6982)" class="st0" width="16.2" height="5.4"/>
</g>
<g id="snowflake">
</g>
</svg>
