<?xml version="1.0" encoding="utf-8"?>
<!-- Generator: Adobe Illustrator 19.0.0, SVG Export Plug-In . SVG Version: 6.00 Build 0)  -->
<svg version="1.1" id="Layer_1" xmlns="http://www.w3.org/2000/svg" xmlns:xlink="http://www.w3.org/1999/xlink" x="0px" y="0px"
	 viewBox="14 141 640 512" style="enable-background:new 14 141 640 512;" xml:space="preserve">
<style type="text/css">
	.st0{fill:#FFFFFF;}
</style>
<path class="st0" d="M110,365c35.3,0,64-28.7,64-64s-28.7-64-64-64s-64,28.7-64,64S74.7,365,110,365z M558,365c35.3,0,64-28.7,64-64
	s-28.7-64-64-64s-64,28.7-64,64S522.7,365,558,365z M590,397h-64c-17.6,0-33.5,7.1-45.1,18.6c40.3,22.1,68.9,62,75.1,109.4h66
	c17.7,0,32-14.3,32-32v-32C654,425.7,625.3,397,590,397z M334,397c61.9,0,112-50.1,112-112s-50.1-112-112-112s-112,50.1-112,112
	S272.1,397,334,397z M410.8,429h-8.3c-20.8,10-43.9,16-68.5,16s-47.6-6-68.5-16h-8.3C193.6,429,142,480.6,142,544.2V573
	c0,26.5,21.5,48,48,48h288c26.5,0,48-21.5,48-48v-28.8C526,480.6,474.4,429,410.8,429z M187.1,415.6C175.5,404.1,159.6,397,142,397
	H78c-35.3,0-64,28.7-64,64v32c0,17.7,14.3,32,32,32h65.9C118.2,477.6,146.8,437.7,187.1,415.6L187.1,415.6z"/>
</svg>
